<?xml version="1.0" encoding="UTF-8"?>
<svg viewBox="0 0 500 200" xmlns="http://www.w3.org/2000/svg" style="width:100%;max-width:500px;margin:20px auto;display:block;">
  <defs><marker id="a03" viewBox="0 0 10 10" refX="9" refY="5" markerWidth="5" markerHeight="5" orient="auto"><path d="M0 0L10 5L0 10z" fill="#6e8eff"/></marker></defs>
  <text x="250" y="15" text-anchor="middle" fill="#9494a0" font-size="10" font-family="system-ui">Transformer Block × N层</text>
  <rect x="30" y="25" width="440" height="155" rx="10" fill="#1a1a24" stroke="#3a3a4a" stroke-width="1"/>
  <!-- Input -->
  <rect x="60" y="75" width="70" height="35" rx="5" fill="#1e1e2a" stroke="#22d3ee" stroke-width="1.5"/>
  <text x="95" y="97" text-anchor="middle" fill="#ededf0" font-size="9" font-family="system-ui">输入</text>
  <line x1="130" y1="92" x2="155" y2="92" stroke="#6e8eff" stroke-width="1.2" marker-end="url(#a03)"/>
  <!-- Self-Attention -->
  <rect x="160" y="70" width="90" height="45" rx="5" fill="#1e1e2a" stroke="#a78bfa" stroke-width="1.5"/>
  <text x="205" y="88" text-anchor="middle" fill="#a78bfa" font-size="9" font-family="system-ui">Multi-Head</text>
  <text x="205" y="103" text-anchor="middle" fill="#a78bfa" font-size="9" font-family="system-ui">Self-Attention</text>
  <line x1="250" y1="92" x2="275" y2="92" stroke="#6e8eff" stroke-width="1.2" marker-end="url(#a03)"/>
  <!-- Add & Norm -->
  <rect x="280" y="78" width="55" height="28" rx="4" fill="#1e1e2a" stroke="#fbbf24" stroke-width="1"/>
  <text x="307" y="96" text-anchor="middle" fill="#fbbf24" font-size="8" font-family="system-ui">Add&Norm</text>
  <line x1="335" y1="92" x2="355" y2="92" stroke="#6e8eff" stroke-width="1.2" marker-end="url(#a03)"/>
  <!-- FFN -->
  <rect x="360" y="75" width="50" height="35" rx="5" fill="#1e1e2a" stroke="#34d399" stroke-width="1.5"/>
  <text x="385" y="97" text-anchor="middle" fill="#34d399" font-size="9" font-family="system-ui">FFN</text>
  <line x1="410" y1="92" x2="430" y2="92" stroke="#6e8eff" stroke-width="1.2" marker-end="url(#a03)"/>
  <!-- Output -->
  <rect x="435" y="78" width="25" height="28" rx="4" fill="#1e1e2a" stroke="#fbbf24" stroke-width="1"/>
  <text x="447" y="96" text-anchor="middle" fill="#fbbf24" font-size="7" font-family="system-ui">A&N</text>
  <!-- Residual arrows -->
  <path d="M95 110 L95 140 L307 140 L307 110" fill="none" stroke="#6b6b78" stroke-width="0.8" stroke-dasharray="3,2"/>
  <text x="200" y="152" text-anchor="middle" fill="#6b6b78" font-size="7" font-family="system-ui">残差连接 (skip connection)</text>
</svg>