<?xml version="1.0" encoding="UTF-8"?>
<svg viewBox="0 0 600 250" xmlns="http://www.w3.org/2000/svg" style="width:100%;max-width:600px;margin:24px auto;display:block;">
  <defs>
    <marker id="arr2" viewBox="0 0 10 10" refX="9" refY="5" markerWidth="6" markerHeight="6" orient="auto">
      <path d="M 0 0 L 10 5 L 0 10 z" fill="#6e8eff"/>
    </marker>
  </defs>
  <text x="300" y="22" text-anchor="middle" fill="#ededf0" font-size="14" font-family="system-ui" font-weight="bold">Softmax 梯度 p(1−p) 与饱和区</text>
  <!-- Axes -->
  <line x1="60" y1="200" x2="550" y2="200" stroke="#3a3a4a" stroke-width="1.5"/>
  <line x1="60" y1="200" x2="60" y2="40" stroke="#3a3a4a" stroke-width="1.5"/>
  <!-- X axis labels -->
  <text x="60" y="220" text-anchor="middle" fill="#999" font-size="11" font-family="system-ui">0</text>
  <text x="305" y="220" text-anchor="middle" fill="#999" font-size="11" font-family="system-ui">0.5</text>
  <text x="550" y="220" text-anchor="middle" fill="#999" font-size="11" font-family="system-ui">1</text>
  <text x="305" y="242" text-anchor="middle" fill="#ededf0" font-size="12" font-family="system-ui">p_i（softmax 输出概率）</text>
  <!-- Y axis label -->
  <text x="25" y="120" text-anchor="middle" fill="#ededf0" font-size="11" font-family="system-ui" transform="rotate(-90, 25, 120)">梯度大小</text>
  <!-- Curve p(1-p) -->
  <path d="M 60,200 Q 100,195 140,175 Q 180,145 220,110 Q 260,75 305,60 Q 350,75 390,110 Q 430,145 470,175 Q 510,195 550,200" fill="none" stroke="#6e8eff" stroke-width="2.5"/>
  <!-- Peak marker -->
  <circle cx="305" cy="60" r="4" fill="#6e8eff"/>
  <text x="305" y="48" text-anchor="middle" fill="#6e8eff" font-size="11" font-family="system-ui">最大值 0.25</text>
  <!-- Dead zones -->
  <rect x="60" y="35" width="80" height="175" rx="4" fill="#ff6b6b" opacity="0.08"/>
  <text x="100" y="55" text-anchor="middle" fill="#ff6b6b" font-size="11" font-family="system-ui">死区</text>
  <rect x="470" y="35" width="80" height="175" rx="4" fill="#ff6b6b" opacity="0.08"/>
  <text x="510" y="55" text-anchor="middle" fill="#ff6b6b" font-size="11" font-family="system-ui">死区</text>
  <!-- Sweet spot -->
  <rect x="200" y="35" width="210" height="175" rx="4" fill="#34d399" opacity="0.06"/>
  <text x="305" y="235" text-anchor="middle" fill="#34d399" font-size="11" font-family="system-ui">← 甜蜜区：梯度有效流动 →</text>
</svg>