<?xml version="1.0" encoding="UTF-8"?>
<svg viewBox="0 0 600 150" xmlns="http://www.w3.org/2000/svg" style="width:100%;max-width:600px;margin:20px auto;display:block;">
  <defs><marker id="c03" viewBox="0 0 10 10" refX="9" refY="5" markerWidth="5" markerHeight="5" orient="auto"><path d="M0 0L10 5L0 10z" fill="#6e8eff"/></marker></defs>
  <!-- RNN side -->
  <text x="150" y="15" text-anchor="middle" fill="#fb7185" font-size="10" font-family="system-ui" font-weight="bold">RNN: 逐步传递，O(n)路径</text>
  <rect x="20" y="30" width="35" height="25" rx="4" fill="#1e1e2a" stroke="#fb7185" stroke-width="1"/><text x="37" y="46" text-anchor="middle" fill="#fff" font-size="8">词₁</text>
  <line x1="55" y1="42" x2="70" y2="42" stroke="#fb7185" stroke-width="1" marker-end="url(#c03)"/>
  <rect x="72" y="30" width="35" height="25" rx="4" fill="#1e1e2a" stroke="#fb7185" stroke-width="1"/><text x="89" y="46" text-anchor="middle" fill="#fff" font-size="8">词₂</text>
  <line x1="107" y1="42" x2="122" y2="42" stroke="#fb7185" stroke-width="1" marker-end="url(#c03)"/>
  <rect x="124" y="30" width="35" height="25" rx="4" fill="#1e1e2a" stroke="#fb7185" stroke-width="1"/><text x="141" y="46" text-anchor="middle" fill="#fff" font-size="8">词₃</text>
  <line x1="159" y1="42" x2="170" y2="42" stroke="#6b6b78" stroke-width="1" stroke-dasharray="2,2"/>
  <text x="183" y="46" fill="#6b6b78" font-size="8">...</text>
  <line x1="193" y1="42" x2="208" y2="42" stroke="#6b6b78" stroke-width="1" stroke-dasharray="2,2"/>
  <rect x="210" y="30" width="45" height="25" rx="4" fill="#1e1e2a" stroke="#fb7185" stroke-width="1"/><text x="232" y="46" text-anchor="middle" fill="#fff" font-size="8">词₁₀₀</text>
  <text x="150" y="75" text-anchor="middle" fill="#6b6b78" font-size="8" font-family="system-ui">词₁ 到 词₁₀₀ 信号经过 99 步传递 → 衰减</text>
  <!-- Transformer side -->
  <text x="450" y="15" text-anchor="middle" fill="#34d399" font-size="10" font-family="system-ui" font-weight="bold">Transformer: 一步直达，O(1)路径</text>
  <rect x="350" y="30" width="40" height="25" rx="4" fill="#1e1e2a" stroke="#34d399" stroke-width="1.5"/><text x="370" y="46" text-anchor="middle" fill="#fff" font-size="8">词₁</text>
  <rect x="510" y="30" width="50" height="25" rx="4" fill="#1e1e2a" stroke="#34d399" stroke-width="1.5"/><text x="535" y="46" text-anchor="middle" fill="#fff" font-size="8">词₁₀₀</text>
  <path d="M390 42 C430 42, 430 42, 510 42" fill="none" stroke="#34d399" stroke-width="2" marker-end="url(#c03)"/>
  <text x="450" y="35" text-anchor="middle" fill="#34d399" font-size="8" font-family="system-ui">1 步 attention</text>
  <text x="450" y="75" text-anchor="middle" fill="#6b6b78" font-size="8" font-family="system-ui">任意两位置直接交互，信息无损</text>
  <!-- Bottom comparison -->
  <rect x="50" y="95" width="200" height="35" rx="5" fill="#1a1a24" stroke="#fb7185" stroke-width="0.8"/>
  <text x="150" y="116" text-anchor="middle" fill="#fb7185" font-size="9" font-family="system-ui">串行 · 不能并行 · 长距离衰减</text>
  <rect x="350" y="95" width="200" height="35" rx="5" fill="#1a1a24" stroke="#34d399" stroke-width="0.8"/>
  <text x="450" y="116" text-anchor="middle" fill="#34d399" font-size="9" font-family="system-ui">并行 · GPU友好 · 长距离无损</text>
</svg>