<?xml version="1.0" encoding="UTF-8"?>
<svg viewBox="0 0 650 130" xmlns="http://www.w3.org/2000/svg" style="width:100%;max-width:650px;margin:20px auto;display:block;">
  <defs><marker id="amoe" viewBox="0 0 10 10" refX="9" refY="5" markerWidth="5" markerHeight="5" orient="auto"><path d="M0 0L10 5L0 10z" fill="#6e8eff"/></marker></defs>
  <rect x="10" y="40" width="70" height="40" rx="6" fill="#1e1e2a" stroke="#60a5fa" stroke-width="1.5"/>
  <text x="45" y="64" text-anchor="middle" fill="#ededf0" font-size="9" font-family="system-ui">Token x</text>
  <line x1="80" y1="60" x2="115" y2="60" stroke="#6e8eff" stroke-width="1.2" marker-end="url(#amoe)"/>
  <rect x="120" y="35" width="90" height="50" rx="6" fill="#1e1e2a" stroke="#6e8eff" stroke-width="1.5"/>
  <text x="165" y="55" text-anchor="middle" fill="#6e8eff" font-size="9" font-family="system-ui">Router</text>
  <text x="165" y="70" text-anchor="middle" fill="#6b6b78" font-size="7" font-family="system-ui">Wx → softmax</text>
  <line x1="210" y1="48" x2="280" y2="30" stroke="#22d3ee" stroke-width="1.2" marker-end="url(#amoe)"/>
  <line x1="210" y1="72" x2="280" y2="90" stroke="#34d399" stroke-width="1.2" marker-end="url(#amoe)"/>
  <text x="250" y="37" fill="#22d3ee" font-size="7" font-family="system-ui">0.6</text>
  <text x="250" y="97" fill="#34d399" font-size="7" font-family="system-ui">0.3</text>
  <rect x="285" y="15" width="90" height="35" rx="5" fill="#1e1e2a" stroke="#22d3ee" stroke-width="1.5"/>
  <text x="330" y="36" text-anchor="middle" fill="#22d3ee" font-size="9" font-family="system-ui">Expert 1</text>
  <rect x="285" y="75" width="90" height="35" rx="5" fill="#1e1e2a" stroke="#34d399" stroke-width="1.5"/>
  <text x="330" y="96" text-anchor="middle" fill="#34d399" font-size="9" font-family="system-ui">Expert 3</text>
  <line x1="375" y1="32" x2="430" y2="55" stroke="#22d3ee" stroke-width="1" marker-end="url(#amoe)"/>
  <line x1="375" y1="92" x2="430" y2="65" stroke="#34d399" stroke-width="1" marker-end="url(#amoe)"/>
  <rect x="435" y="40" width="100" height="40" rx="6" fill="#1e1e2a" stroke="#fbbf24" stroke-width="1.5"/>
  <text x="485" y="58" text-anchor="middle" fill="#fbbf24" font-size="8" font-family="system-ui">加权求和</text>
  <text x="485" y="72" text-anchor="middle" fill="#6b6b78" font-size="7" font-family="system-ui">0.6·E1 + 0.3·E3</text>
  <line x1="535" y1="60" x2="575" y2="60" stroke="#6e8eff" stroke-width="1.2" marker-end="url(#amoe)"/>
  <rect x="580" y="40" width="60" height="40" rx="6" fill="#1e1e2a" stroke="#60a5fa" stroke-width="1.5"/>
  <text x="610" y="64" text-anchor="middle" fill="#ededf0" font-size="9" font-family="system-ui">输出</text>
</svg>