<?xml version="1.0" encoding="UTF-8"?>
<svg viewBox="0 0 650 160" xmlns="http://www.w3.org/2000/svg" style="width:100%;max-width:650px;margin:24px auto;display:block;">
  <text x="325" y="15" text-anchor="middle" fill="#9494a0" font-size="10" font-family="system-ui">All-to-All 通信：每块 GPU 都要和其他所有 GPU 交换 token</text>
  <!-- 4 GPUs -->
  <rect x="30" y="35" width="120" height="50" rx="6" fill="#1e1e2a" stroke="#22d3ee" stroke-width="1.5"/>
  <text x="90" y="55" text-anchor="middle" fill="#22d3ee" font-size="9" font-family="system-ui">GPU 0 (Expert 1,2)</text>
  <text x="90" y="72" text-anchor="middle" fill="#9494a0" font-size="7" font-family="system-ui">持有 token A,B,C</text>
  <rect x="200" y="35" width="120" height="50" rx="6" fill="#1e1e2a" stroke="#34d399" stroke-width="1.5"/>
  <text x="260" y="55" text-anchor="middle" fill="#34d399" font-size="9" font-family="system-ui">GPU 1 (Expert 3,4)</text>
  <text x="260" y="72" text-anchor="middle" fill="#9494a0" font-size="7" font-family="system-ui">持有 token D,E,F</text>
  <rect x="370" y="35" width="120" height="50" rx="6" fill="#1e1e2a" stroke="#fbbf24" stroke-width="1.5"/>
  <text x="430" y="55" text-anchor="middle" fill="#fbbf24" font-size="9" font-family="system-ui">GPU 2 (Expert 5,6)</text>
  <text x="430" y="72" text-anchor="middle" fill="#9494a0" font-size="7" font-family="system-ui">持有 token G,H,I</text>
  <rect x="540" y="35" width="90" height="50" rx="6" fill="#1e1e2a" stroke="#a78bfa" stroke-width="1.5"/>
  <text x="585" y="55" text-anchor="middle" fill="#a78bfa" font-size="9" font-family="system-ui">GPU 3 (E7,8)</text>
  <text x="585" y="72" text-anchor="middle" fill="#9494a0" font-size="7" font-family="system-ui">token J,K,L</text>
  <!-- Cross arrows -->
  <line x1="90" y1="85" x2="260" y2="100" stroke="#6e8eff" stroke-width="0.8" opacity="0.6"/>
  <line x1="90" y1="85" x2="430" y2="100" stroke="#6e8eff" stroke-width="0.8" opacity="0.6"/>
  <line x1="260" y1="85" x2="90" y2="100" stroke="#6e8eff" stroke-width="0.8" opacity="0.6"/>
  <line x1="260" y1="85" x2="430" y2="100" stroke="#6e8eff" stroke-width="0.8" opacity="0.6"/>
  <line x1="430" y1="85" x2="90" y2="100" stroke="#6e8eff" stroke-width="0.8" opacity="0.6"/>
  <line x1="430" y1="85" x2="585" y2="100" stroke="#6e8eff" stroke-width="0.8" opacity="0.6"/>
  <line x1="585" y1="85" x2="260" y2="100" stroke="#6e8eff" stroke-width="0.8" opacity="0.6"/>
  <text x="325" y="108" text-anchor="middle" fill="#6e8eff" font-size="8" font-family="system-ui">All-to-All: token 按目标 expert 发送到对应 GPU</text>
  <!-- Timeline -->
  <rect x="80" y="125" width="120" height="18" rx="3" fill="#fb7185" opacity="0.3"/>
  <text x="140" y="137" text-anchor="middle" fill="#fb7185" font-size="7" font-family="system-ui">通信 (Dispatch)</text>
  <rect x="210" y="125" width="150" height="18" rx="3" fill="#34d399" opacity="0.3"/>
  <text x="285" y="137" text-anchor="middle" fill="#34d399" font-size="7" font-family="system-ui">本地 Expert 计算</text>
  <rect x="370" y="125" width="120" height="18" rx="3" fill="#fb7185" opacity="0.3"/>
  <text x="430" y="137" text-anchor="middle" fill="#fb7185" font-size="7" font-family="system-ui">通信 (Combine)</text>
  <text x="325" y="155" text-anchor="middle" fill="#6b6b78" font-size="7" font-family="system-ui">优化目标：让红色（通信）和绿色（计算）尽量重叠</text>
</svg>