<?xml version="1.0" encoding="UTF-8"?>
<svg viewBox="0 0 650 280" xmlns="http://www.w3.org/2000/svg" style="width:100%;max-width:650px;margin:24px auto;display:block;">
  <defs>
    <marker id="arr1" viewBox="0 0 10 10" refX="9" refY="5" markerWidth="6" markerHeight="6" orient="auto">
      <path d="M 0 0 L 10 5 L 0 10 z" fill="#6e8eff"/>
    </marker>
  </defs>
  <!-- Title -->
  <text x="325" y="24" text-anchor="middle" fill="#ededf0" font-size="14" font-family="system-ui" font-weight="bold">温度对 Softmax 输出分布的影响</text>
  <!-- T→0 box -->
  <rect x="20" y="45" width="180" height="200" rx="8" fill="#1e1e2a" stroke="#ff6b6b" stroke-width="1.5"/>
  <text x="110" y="70" text-anchor="middle" fill="#ff6b6b" font-size="13" font-family="system-ui" font-weight="bold">T → 0（冰点）</text>
  <!-- Bar chart for T→0 -->
  <rect x="50" y="85" width="30" height="140" rx="3" fill="#ff6b6b" opacity="0.8"/>
  <rect x="95" y="215" width="30" height="10" rx="3" fill="#ff6b6b" opacity="0.3"/>
  <rect x="140" y="220" width="30" height="5" rx="3" fill="#ff6b6b" opacity="0.2"/>
  <text x="65" y="240" text-anchor="middle" fill="#ededf0" font-size="11" font-family="system-ui">A</text>
  <text x="110" y="240" text-anchor="middle" fill="#ededf0" font-size="11" font-family="system-ui">B</text>
  <text x="155" y="240" text-anchor="middle" fill="#ededf0" font-size="11" font-family="system-ui">C</text>
  <text x="110" y="258" text-anchor="middle" fill="#999" font-size="10" font-family="system-ui">≈ argmax</text>
  <!-- T=1 box -->
  <rect x="230" y="45" width="180" height="200" rx="8" fill="#1e1e2a" stroke="#6e8eff" stroke-width="1.5"/>
  <text x="320" y="70" text-anchor="middle" fill="#6e8eff" font-size="13" font-family="system-ui" font-weight="bold">T = 1（标准）</text>
  <!-- Bar chart for T=1 -->
  <rect x="260" y="110" width="30" height="115" rx="3" fill="#6e8eff" opacity="0.8"/>
  <rect x="305" y="160" width="30" height="65" rx="3" fill="#6e8eff" opacity="0.6"/>
  <rect x="350" y="185" width="30" height="40" rx="3" fill="#6e8eff" opacity="0.4"/>
  <text x="275" y="240" text-anchor="middle" fill="#ededf0" font-size="11" font-family="system-ui">A</text>
  <text x="320" y="240" text-anchor="middle" fill="#ededf0" font-size="11" font-family="system-ui">B</text>
  <text x="365" y="240" text-anchor="middle" fill="#ededf0" font-size="11" font-family="system-ui">C</text>
  <text x="320" y="258" text-anchor="middle" fill="#999" font-size="10" font-family="system-ui">soft 选择</text>
  <!-- T→∞ box -->
  <rect x="440" y="45" width="180" height="200" rx="8" fill="#1e1e2a" stroke="#34d399" stroke-width="1.5"/>
  <text x="530" y="70" text-anchor="middle" fill="#34d399" font-size="13" font-family="system-ui" font-weight="bold">T → ∞（熔炉）</text>
  <!-- Bar chart for T→∞ -->
  <rect x="470" y="175" width="30" height="50" rx="3" fill="#34d399" opacity="0.6"/>
  <rect x="515" y="178" width="30" height="47" rx="3" fill="#34d399" opacity="0.6"/>
  <rect x="560" y="180" width="30" height="45" rx="3" fill="#34d399" opacity="0.6"/>
  <text x="485" y="240" text-anchor="middle" fill="#ededf0" font-size="11" font-family="system-ui">A</text>
  <text x="530" y="240" text-anchor="middle" fill="#ededf0" font-size="11" font-family="system-ui">B</text>
  <text x="575" y="240" text-anchor="middle" fill="#ededf0" font-size="11" font-family="system-ui">C</text>
  <text x="530" y="258" text-anchor="middle" fill="#999" font-size="10" font-family="system-ui">≈ 均匀分布</text>
</svg>