<?xml version="1.0" encoding="UTF-8"?>
<svg viewBox="0 0 750 230" xmlns="http://www.w3.org/2000/svg" style="width:100%;max-width:750px;margin:24px auto;display:block;">
  <defs>
    <marker id="arr6" viewBox="0 0 10 10" refX="9" refY="5" markerWidth="6" markerHeight="6" orient="auto">
      <path d="M 0 0 L 10 5 L 0 10 z" fill="#6e8eff"/>
    </marker>
  </defs>
  <rect x="0" y="0" width="750" height="230" rx="12" fill="#13131a" stroke="#23232e" stroke-width="1"/>
  <text x="375" y="20" text-anchor="middle" fill="#6b6b78" font-size="12" font-family="system-ui">MEGABYTE 多尺度架构</text>
  
  <!-- Byte stream -->
  <text x="30" y="48" fill="#6b6b78" font-size="10" font-family="system-ui">原始字节流：</text>
  <rect x="30" y="55" width="690" height="25" rx="4" fill="#1e1e2a" stroke="#23232e" stroke-width="1"/>
  <text x="375" y="72" text-anchor="middle" fill="#ededf0" font-size="10" font-family="monospace">T h e   c a t   s a t   o n   t h e   m a t .</text>
  
  <!-- Patches -->
  <text x="30" y="97" fill="#6b6b78" font-size="10" font-family="system-ui">固定 Patch (每 8 字节)：</text>
  <rect x="30" y="103" width="170" height="25" rx="4" fill="#22d3ee11" stroke="#22d3ee" stroke-width="1.5"/>
  <text x="115" y="119" text-anchor="middle" fill="#22d3ee" font-size="10" font-family="monospace">T h e   c a t  </text>
  <rect x="210" y="103" width="170" height="25" rx="4" fill="#34d39911" stroke="#34d399" stroke-width="1.5"/>
  <text x="295" y="119" text-anchor="middle" fill="#34d399" font-size="10" font-family="monospace">s a t   o n  </text>
  <rect x="390" y="103" width="170" height="25" rx="4" fill="#fbbf2411" stroke="#fbbf24" stroke-width="1.5"/>
  <text x="475" y="119" text-anchor="middle" fill="#fbbf24" font-size="10" font-family="monospace">t h e   m a t .</text>
  
  <!-- Global model -->
  <line x1="115" y1="128" x2="115" y2="148" stroke="#6e8eff" stroke-width="1" marker-end="url(#arr6)"/>
  <line x1="295" y1="128" x2="295" y2="148" stroke="#6e8eff" stroke-width="1" marker-end="url(#arr6)"/>
  <line x1="475" y1="128" x2="475" y2="148" stroke="#6e8eff" stroke-width="1" marker-end="url(#arr6)"/>
  
  <rect x="60" y="150" width="470" height="35" rx="8" fill="#6e8eff22" stroke="#6e8eff" stroke-width="2"/>
  <text x="295" y="165" text-anchor="middle" fill="#6e8eff" font-size="12" font-family="system-ui">全局 Transformer（大模型）</text>
  <text x="295" y="180" text-anchor="middle" fill="#6b6b78" font-size="9" font-family="system-ui">处理 patch 间关系 — 语义级理解</text>
  
  <!-- Local models -->
  <line x1="115" y1="185" x2="115" y2="200" stroke="#a78bfa" stroke-width="1" marker-end="url(#arr6)"/>
  <line x1="295" y1="185" x2="295" y2="200" stroke="#a78bfa" stroke-width="1" marker-end="url(#arr6)"/>
  <line x1="475" y1="185" x2="475" y2="200" stroke="#a78bfa" stroke-width="1" marker-end="url(#arr6)"/>
  
  <rect x="55" y="202" width="120" height="22" rx="4" fill="#a78bfa22" stroke="#a78bfa" stroke-width="1"/>
  <text x="115" y="216" text-anchor="middle" fill="#a78bfa" font-size="9" font-family="system-ui">局部模型(小)</text>
  
  <rect x="235" y="202" width="120" height="22" rx="4" fill="#a78bfa22" stroke="#a78bfa" stroke-width="1"/>
  <text x="295" y="216" text-anchor="middle" fill="#a78bfa" font-size="9" font-family="system-ui">局部模型(小)</text>
  
  <rect x="415" y="202" width="120" height="22" rx="4" fill="#a78bfa22" stroke="#a78bfa" stroke-width="1"/>
  <text x="475" y="216" text-anchor="middle" fill="#a78bfa" font-size="9" font-family="system-ui">局部模型(小)</text>
  
  <!-- Key insight box -->
  <rect x="570" y="140" width="160" height="70" rx="6" fill="#34d39911" stroke="#34d399" stroke-width="1"/>
  <text x="650" y="160" text-anchor="middle" fill="#34d399" font-size="10" font-family="system-ui">优势：</text>
  <text x="650" y="176" text-anchor="middle" fill="#6b6b78" font-size="9" font-family="system-ui">✓ 无需 tokenizer</text>
  <text x="650" y="190" text-anchor="middle" fill="#6b6b78" font-size="9" font-family="system-ui">✓ 100万+ 字节上下文</text>
  <text x="650" y="204" text-anchor="middle" fill="#6b6b78" font-size="9" font-family="system-ui">⚠ patch 大小固定</text>
</svg>