<?xml version="1.0" encoding="UTF-8"?>
<svg viewBox="0 0 650 220" xmlns="http://www.w3.org/2000/svg" style="width:100%;max-width:650px;margin:24px auto;display:block;">
  <defs>
    <marker id="arrow1" viewBox="0 0 10 10" refX="9" refY="5" markerWidth="6" markerHeight="6" orient="auto">
      <path d="M 0 0 L 10 5 L 0 10 z" fill="#6e8eff"/>
    </marker>
  </defs>
  <!-- SGD path (zigzag) -->
  <text x="80" y="20" text-anchor="middle" fill="#ef4444" font-size="12" font-family="system-ui">纯 SGD：来回震荡</text>
  <polyline points="30,180 60,50 90,170 120,60 150,160 180,70 210,150" fill="none" stroke="#ef4444" stroke-width="1.5" stroke-dasharray="4,3"/>
  <circle cx="210" cy="150" r="4" fill="#ef4444"/>
  <!-- Momentum path (smooth) -->
  <text x="430" y="20" text-anchor="middle" fill="#34d399" font-size="12" font-family="system-ui">带动量：平滑前进</text>
  <path d="M 300,180 C 330,140 360,100 390,90 C 420,80 450,75 500,70" fill="none" stroke="#34d399" stroke-width="2"/>
  <circle cx="500" cy="70" r="4" fill="#34d399"/>
  <!-- Valley walls -->
  <rect x="20" y="35" width="200" height="160" rx="8" fill="none" stroke="#3a3a4a" stroke-width="1" stroke-dasharray="2,2"/>
  <rect x="290" y="35" width="220" height="160" rx="8" fill="none" stroke="#3a3a4a" stroke-width="1" stroke-dasharray="2,2"/>
  <!-- Labels -->
  <text x="120" y="210" text-anchor="middle" fill="#94a3b8" font-size="11" font-family="system-ui">峡谷（高曲率×低曲率）</text>
  <text x="400" y="210" text-anchor="middle" fill="#94a3b8" font-size="11" font-family="system-ui">惯性帮助穿越平坦方向</text>
  <!-- Star at minimum -->
  <text x="190" y="125" fill="#fbbf24" font-size="16">★</text>
  <text x="490" y="80" fill="#fbbf24" font-size="16">★</text>
  <text x="560" y="78" fill="#94a3b8" font-size="10" font-family="system-ui">最低点</text>
</svg>