<?xml version="1.0" encoding="UTF-8"?>
<svg viewBox="0 0 700 240" xmlns="http://www.w3.org/2000/svg" style="width:100%;max-width:700px;margin:24px auto;display:block;">
  <!-- Traditional -->
  <text x="160" y="20" text-anchor="middle" fill="#fb7185" font-size="11" font-family="system-ui" font-weight="bold">传统：连续预分配</text>
  <rect x="20" y="30" width="280" height="190" rx="6" fill="#1a1a24" stroke="#3a3a4a" stroke-width="1"/>
  <!-- Seq A -->
  <rect x="35" y="45" width="80" height="30" rx="4" fill="#22d3ee" opacity="0.5"/>
  <rect x="115" y="45" width="140" height="30" rx="4" fill="#3a3a4a" opacity="0.3"/>
  <text x="75" y="64" text-anchor="middle" fill="#fff" font-size="8">Seq A 实际</text>
  <text x="185" y="64" text-anchor="middle" fill="#6b6b78" font-size="8">浪费 (预分配)</text>
  <!-- Seq B -->
  <rect x="35" y="85" width="160" height="30" rx="4" fill="#34d399" opacity="0.5"/>
  <rect x="195" y="85" width="60" height="30" rx="4" fill="#3a3a4a" opacity="0.3"/>
  <text x="115" y="104" text-anchor="middle" fill="#fff" font-size="8">Seq B 实际</text>
  <text x="225" y="104" text-anchor="middle" fill="#6b6b78" font-size="8">浪费</text>
  <!-- Gap -->
  <rect x="35" y="125" width="220" height="20" rx="4" fill="none" stroke="#fb7185" stroke-width="1" stroke-dasharray="3,2"/>
  <text x="145" y="139" text-anchor="middle" fill="#fb7185" font-size="8">外部碎片 (无法利用)</text>
  <!-- Seq C -->
  <rect x="35" y="155" width="40" height="30" rx="4" fill="#fbbf24" opacity="0.5"/>
  <rect x="75" y="155" width="180" height="30" rx="4" fill="#3a3a4a" opacity="0.3"/>
  <text x="55" y="174" text-anchor="middle" fill="#fff" font-size="8">C</text>
  <text x="165" y="174" text-anchor="middle" fill="#6b6b78" font-size="8">巨大浪费</text>
  <text x="160" y="205" text-anchor="middle" fill="#fb7185" font-size="10" font-family="system-ui">利用率: ~20-40%</text>
  
  <!-- PagedAttention -->
  <text x="530" y="20" text-anchor="middle" fill="#34d399" font-size="11" font-family="system-ui" font-weight="bold">PagedAttention：分页按需分配</text>
  <rect x="390" y="30" width="290" height="190" rx="6" fill="#1a1a24" stroke="#3a3a4a" stroke-width="1"/>
  <!-- Grid of blocks -->
  <rect x="405" y="45" width="32" height="25" rx="3" fill="#22d3ee" opacity="0.6"/><text x="421" y="62" text-anchor="middle" fill="#fff" font-size="7">A</text>
  <rect x="441" y="45" width="32" height="25" rx="3" fill="#34d399" opacity="0.6"/><text x="457" y="62" text-anchor="middle" fill="#fff" font-size="7">B</text>
  <rect x="477" y="45" width="32" height="25" rx="3" fill="#22d3ee" opacity="0.6"/><text x="493" y="62" text-anchor="middle" fill="#fff" font-size="7">A</text>
  <rect x="513" y="45" width="32" height="25" rx="3" fill="#fbbf24" opacity="0.6"/><text x="529" y="62" text-anchor="middle" fill="#fff" font-size="7">C</text>
  <rect x="549" y="45" width="32" height="25" rx="3" fill="#34d399" opacity="0.6"/><text x="565" y="62" text-anchor="middle" fill="#fff" font-size="7">B</text>
  <rect x="585" y="45" width="32" height="25" rx="3" fill="#34d399" opacity="0.6"/><text x="601" y="62" text-anchor="middle" fill="#fff" font-size="7">B</text>
  <rect x="621" y="45" width="32" height="25" rx="3" fill="#22d3ee" opacity="0.6"/><text x="637" y="62" text-anchor="middle" fill="#fff" font-size="7">A</text>
  <rect x="405" y="75" width="32" height="25" rx="3" fill="#fbbf24" opacity="0.6"/><text x="421" y="92" text-anchor="middle" fill="#fff" font-size="7">C</text>
  <rect x="441" y="75" width="32" height="25" rx="3" fill="#34d399" opacity="0.6"/><text x="457" y="92" text-anchor="middle" fill="#fff" font-size="7">B</text>
  <rect x="477" y="75" width="32" height="25" rx="3" fill="#3a3a4a" opacity="0.3"/>
  <rect x="513" y="75" width="32" height="25" rx="3" fill="#3a3a4a" opacity="0.3"/>
  <text x="530" y="120" text-anchor="middle" fill="#9494a0" font-size="9" font-family="system-ui">Block Table: A→[0,2,6] B→[1,4,5,8] C→[3,7]</text>
  <text x="530" y="140" text-anchor="middle" fill="#9494a0" font-size="9" font-family="system-ui">非连续存储，按需分配，用完释放</text>
  <text x="530" y="165" text-anchor="middle" fill="#34d399" font-size="10" font-family="system-ui">利用率: ~96%+</text>
  <text x="530" y="185" text-anchor="middle" fill="#9494a0" font-size="9" font-family="system-ui">吞吐提升 2-4×</text>
</svg>