<?xml version="1.0" encoding="UTF-8"?>
<svg viewBox="0 0 620 240" xmlns="http://www.w3.org/2000/svg" style="width:100%;max-width:620px;margin:24px auto;display:block;">
  <defs>
    <marker id="arrow2" viewBox="0 0 10 10" refX="9" refY="5" markerWidth="6" markerHeight="6" orient="auto">
      <path d="M 0 0 L 10 5 L 0 10 z" fill="#6e8eff"/>
    </marker>
  </defs>
  <!-- Title -->
  <text x="310" y="24" text-anchor="middle" fill="#ededf0" font-size="14" font-family="system-ui" font-weight="bold">FP16 vs BF16：精度与范围的权衡</text>
  
  <!-- Number line representation -->
  <!-- FP16 section -->
  <text x="50" y="70" fill="#22d3ee" font-size="13" font-family="system-ui" font-weight="bold">FP16</text>
  <line x1="100" y1="67" x2="580" y2="67" stroke="#3a3a4a" stroke-width="1"/>
  <!-- Dense ticks in limited range -->
  <line x1="100" y1="60" x2="100" y2="74" stroke="#22d3ee" stroke-width="1.5"/>
  <line x1="120" y1="62" x2="120" y2="72" stroke="#22d3ee" stroke-width="1"/>
  <line x1="140" y1="62" x2="140" y2="72" stroke="#22d3ee" stroke-width="1"/>
  <line x1="160" y1="62" x2="160" y2="72" stroke="#22d3ee" stroke-width="1"/>
  <line x1="180" y1="62" x2="180" y2="72" stroke="#22d3ee" stroke-width="1"/>
  <line x1="200" y1="62" x2="200" y2="72" stroke="#22d3ee" stroke-width="1"/>
  <line x1="220" y1="62" x2="220" y2="72" stroke="#22d3ee" stroke-width="1"/>
  <line x1="240" y1="62" x2="240" y2="72" stroke="#22d3ee" stroke-width="1"/>
  <line x1="260" y1="62" x2="260" y2="72" stroke="#22d3ee" stroke-width="1"/>
  <line x1="280" y1="62" x2="280" y2="72" stroke="#22d3ee" stroke-width="1"/>
  <line x1="300" y1="60" x2="300" y2="74" stroke="#22d3ee" stroke-width="1.5"/>
  <!-- End marker - cliff -->
  <rect x="300" y="55" width="280" height="24" rx="4" fill="#ef4444" opacity="0.1" stroke="#ef4444" stroke-width="1" stroke-dasharray="4,3"/>
  <text x="440" y="71" text-anchor="middle" fill="#ef4444" font-size="11" font-family="system-ui">溢出区（> 65504 → inf）</text>
  
  <text x="100" y="90" text-anchor="middle" fill="#64748b" font-size="10" font-family="system-ui">0</text>
  <text x="300" y="90" text-anchor="middle" fill="#64748b" font-size="10" font-family="system-ui">65504</text>
  <text x="200" y="52" text-anchor="middle" fill="#22d3ee" font-size="10" font-family="system-ui">精度高（刻度密）</text>

  <!-- BF16 section -->
  <text x="50" y="150" fill="#34d399" font-size="13" font-family="system-ui" font-weight="bold">BF16</text>
  <line x1="100" y1="147" x2="580" y2="147" stroke="#3a3a4a" stroke-width="1"/>
  <!-- Sparse ticks across full range -->
  <line x1="100" y1="140" x2="100" y2="154" stroke="#34d399" stroke-width="1.5"/>
  <line x1="140" y1="142" x2="140" y2="152" stroke="#34d399" stroke-width="1"/>
  <line x1="180" y1="142" x2="180" y2="152" stroke="#34d399" stroke-width="1"/>
  <line x1="220" y1="142" x2="220" y2="152" stroke="#34d399" stroke-width="1"/>
  <line x1="260" y1="142" x2="260" y2="152" stroke="#34d399" stroke-width="1"/>
  <line x1="300" y1="142" x2="300" y2="152" stroke="#34d399" stroke-width="1"/>
  <line x1="340" y1="142" x2="340" y2="152" stroke="#34d399" stroke-width="1"/>
  <line x1="380" y1="142" x2="380" y2="152" stroke="#34d399" stroke-width="1"/>
  <line x1="420" y1="142" x2="420" y2="152" stroke="#34d399" stroke-width="1"/>
  <line x1="460" y1="142" x2="460" y2="152" stroke="#34d399" stroke-width="1"/>
  <line x1="500" y1="142" x2="500" y2="152" stroke="#34d399" stroke-width="1"/>
  <line x1="540" y1="142" x2="540" y2="152" stroke="#34d399" stroke-width="1"/>
  <line x1="580" y1="140" x2="580" y2="154" stroke="#34d399" stroke-width="1.5"/>
  
  <text x="100" y="170" text-anchor="middle" fill="#64748b" font-size="10" font-family="system-ui">0</text>
  <text x="580" y="170" text-anchor="middle" fill="#64748b" font-size="10" font-family="system-ui">3.4×10³⁸</text>
  <text x="340" y="132" text-anchor="middle" fill="#34d399" font-size="10" font-family="system-ui">精度低（刻度疏）但覆盖全范围</text>

  <!-- Summary -->
  <text x="310" y="205" text-anchor="middle" fill="#ededf0" font-size="12" font-family="system-ui">FP16 = 在小范围内看得清楚（高精度 + 窄范围）</text>
  <text x="310" y="225" text-anchor="middle" fill="#ededf0" font-size="12" font-family="system-ui">BF16 = 视野覆盖全局但细节模糊（低精度 + 宽范围）</text>
</svg>