<?xml version="1.0" encoding="UTF-8"?>
<svg viewBox="0 0 580 120" xmlns="http://www.w3.org/2000/svg" style="width:100%;max-width:580px;margin:20px auto;display:block;">
  <defs><marker id="b02" viewBox="0 0 10 10" refX="9" refY="5" markerWidth="5" markerHeight="5" orient="auto"><path d="M0 0L10 5L0 10z" fill="#6e8eff"/></marker></defs>
  <rect x="5" y="20" width="95" height="45" rx="6" fill="#1e1e2a" stroke="#a78bfa" stroke-width="1.5"/>
  <text x="52" y="40" text-anchor="middle" fill="#ededf0" font-size="9" font-family="system-ui">编码器各位置</text>
  <text x="52" y="55" text-anchor="middle" fill="#9494a0" font-size="8" font-family="system-ui">h₁, h₂, ... hₙ</text>
  <line x1="100" y1="42" x2="130" y2="42" stroke="#6e8eff" stroke-width="1.2" marker-end="url(#b02)"/>
  <rect x="135" y="20" width="95" height="45" rx="6" fill="#1e1e2a" stroke="#22d3ee" stroke-width="1.5"/>
  <text x="182" y="40" text-anchor="middle" fill="#ededf0" font-size="9" font-family="system-ui">逐位置打分</text>
  <text x="182" y="55" text-anchor="middle" fill="#9494a0" font-size="8" font-family="system-ui">score(s, hⱼ)</text>
  <line x1="230" y1="42" x2="260" y2="42" stroke="#6e8eff" stroke-width="1.2" marker-end="url(#b02)"/>
  <rect x="265" y="20" width="80" height="45" rx="6" fill="#1e1e2a" stroke="#fbbf24" stroke-width="1.5"/>
  <text x="305" y="40" text-anchor="middle" fill="#ededf0" font-size="9" font-family="system-ui">Softmax</text>
  <text x="305" y="55" text-anchor="middle" fill="#9494a0" font-size="8" font-family="system-ui">→ 权重 αⱼ</text>
  <line x1="345" y1="42" x2="375" y2="42" stroke="#6e8eff" stroke-width="1.2" marker-end="url(#b02)"/>
  <rect x="380" y="20" width="100" height="45" rx="6" fill="#1e1e2a" stroke="#34d399" stroke-width="1.5"/>
  <text x="430" y="40" text-anchor="middle" fill="#ededf0" font-size="9" font-family="system-ui">加权求和</text>
  <text x="430" y="55" text-anchor="middle" fill="#9494a0" font-size="8" font-family="system-ui">c = Σ αⱼ·hⱼ</text>
  <line x1="480" y1="42" x2="510" y2="42" stroke="#6e8eff" stroke-width="1.2" marker-end="url(#b02)"/>
  <rect x="515" y="25" width="55" height="35" rx="6" fill="#1e1e2a" stroke="#fbbf24" stroke-width="1.5"/>
  <text x="542" y="47" text-anchor="middle" fill="#ededf0" font-size="9" font-family="system-ui">预测词</text>
  <text x="290" y="95" text-anchor="middle" fill="#34d399" font-size="9" font-family="system-ui">每一步解码，权重动态变化 → 关注不同位置</text>
</svg>