<?xml version="1.0" encoding="UTF-8"?>
<svg viewBox="0 0 700 180" xmlns="http://www.w3.org/2000/svg" style="width:100%;max-width:700px;margin:24px auto;display:block;">
  <rect x="0" y="0" width="700" height="180" rx="12" fill="#13131a" stroke="#23232e" stroke-width="1"/>
  <text x="350" y="20" text-anchor="middle" fill="#6b6b78" font-size="12" font-family="system-ui">Token 级别水印机制</text>
  
  <!-- Normal distribution -->
  <text x="175" y="45" text-anchor="middle" fill="#6b6b78" font-size="10" font-family="system-ui">正常生成</text>
  <rect x="30" y="55" width="290" height="60" rx="6" fill="#1e1e2a" stroke="#23232e" stroke-width="1"/>
  <!-- Bars -->
  <rect x="45" y="80" width="20" height="30" rx="2" fill="#6e8eff" opacity="0.8"/>
  <rect x="75" y="70" width="20" height="40" rx="2" fill="#6e8eff" opacity="0.8"/>
  <rect x="105" y="60" width="20" height="50" rx="2" fill="#6e8eff" opacity="0.8"/>
  <rect x="135" y="75" width="20" height="35" rx="2" fill="#6e8eff" opacity="0.8"/>
  <rect x="165" y="85" width="20" height="25" rx="2" fill="#6e8eff" opacity="0.8"/>
  <rect x="195" y="90" width="20" height="20" rx="2" fill="#6e8eff" opacity="0.8"/>
  <rect x="225" y="95" width="20" height="15" rx="2" fill="#6e8eff" opacity="0.8"/>
  <rect x="255" y="100" width="20" height="10" rx="2" fill="#6e8eff" opacity="0.8"/>
  <rect x="285" y="103" width="20" height="7" rx="2" fill="#6e8eff" opacity="0.8"/>
  <text x="175" y="125" text-anchor="middle" fill="#6b6b78" font-size="9" font-family="system-ui">词表概率分布 (均匀选择)</text>
  
  <!-- Arrow -->
  <text x="350" y="80" text-anchor="middle" fill="#fbbf24" font-size="20" font-family="system-ui">→</text>
  <text x="350" y="100" text-anchor="middle" fill="#fbbf24" font-size="9" font-family="system-ui">+水印</text>
  
  <!-- Watermarked distribution -->
  <text x="525" y="45" text-anchor="middle" fill="#6b6b78" font-size="10" font-family="system-ui">水印生成</text>
  <rect x="380" y="55" width="290" height="60" rx="6" fill="#1e1e2a" stroke="#23232e" stroke-width="1"/>
  <!-- Green tokens (boosted) -->
  <rect x="395" y="72" width="20" height="38" rx="2" fill="#34d399" opacity="0.9"/>
  <rect x="425" y="60" width="20" height="50" rx="2" fill="#34d399" opacity="0.9"/>
  <rect x="455" y="68" width="20" height="42" rx="2" fill="#34d399" opacity="0.9"/>
  <rect x="485" y="75" width="20" height="35" rx="2" fill="#34d399" opacity="0.9"/>
  <!-- Red tokens (suppressed) -->
  <rect x="525" y="95" width="20" height="15" rx="2" fill="#fb7185" opacity="0.6"/>
  <rect x="555" y="98" width="20" height="12" rx="2" fill="#fb7185" opacity="0.6"/>
  <rect x="585" y="100" width="20" height="10" rx="2" fill="#fb7185" opacity="0.6"/>
  <rect x="615" y="103" width="20" height="7" rx="2" fill="#fb7185" opacity="0.6"/>
  <rect x="645" y="105" width="20" height="5" rx="2" fill="#fb7185" opacity="0.6"/>
  <!-- Labels -->
  <text x="450" y="125" text-anchor="middle" fill="#34d399" font-size="9" font-family="system-ui">绿色 (概率↑)</text>
  <text x="590" y="125" text-anchor="middle" fill="#fb7185" font-size="9" font-family="system-ui">红色 (概率↓)</text>
  
  <!-- Detection -->
  <rect x="30" y="140" width="640" height="30" rx="6" fill="#34d39911" stroke="#34d399" stroke-width="1"/>
  <text x="350" y="158" text-anchor="middle" fill="#34d399" font-size="11" font-family="system-ui">检测：统计文本中绿色 token 的比例 → z-score 显著性检验 → 判定是否 AI 生成</text>
</svg>