<?xml version="1.0" encoding="UTF-8"?>
<svg viewBox="0 0 700 320" xmlns="http://www.w3.org/2000/svg" style="width:100%;max-width:700px;margin:24px auto;display:block;">
  <defs>
    <marker id="arrow-lora" viewBox="0 0 10 10" refX="9" refY="5" markerWidth="6" markerHeight="6" orient="auto">
      <path d="M 0 0 L 10 5 L 0 10 z" fill="#6e8eff"/>
    </marker>
  </defs>
  <!-- Input -->
  <rect x="20" y="120" width="80" height="80" rx="8" fill="#1e1e2a" stroke="#6e8eff" stroke-width="1.5"/>
  <text x="60" y="155" text-anchor="middle" fill="#ededf0" font-size="13" font-family="system-ui">输入 x</text>
  <text x="60" y="175" text-anchor="middle" fill="#8888aa" font-size="11" font-family="system-ui">k 维</text>
  
  <!-- Main path: W0 -->
  <line x1="100" y1="140" x2="250" y2="80" stroke="#3a3a4a" stroke-width="1.5" marker-end="url(#arrow-lora)"/>
  <rect x="250" y="50" width="140" height="55" rx="8" fill="#1e1e2a" stroke="#3a3a4a" stroke-width="1.5"/>
  <text x="320" y="75" text-anchor="middle" fill="#ededf0" font-size="13" font-family="system-ui">W₀ · x</text>
  <text x="320" y="93" text-anchor="middle" fill="#8888aa" font-size="11" font-family="system-ui">冻结（不训练）</text>
  
  <!-- LoRA path: A -->
  <line x1="100" y1="180" x2="180" y2="220" stroke="#6e8eff" stroke-width="2" marker-end="url(#arrow-lora)"/>
  <rect x="180" y="195" width="100" height="55" rx="8" fill="#1e1e2a" stroke="#6e8eff" stroke-width="1.5"/>
  <text x="230" y="218" text-anchor="middle" fill="#ededf0" font-size="13" font-family="system-ui">A · x</text>
  <text x="230" y="238" text-anchor="middle" fill="#6e8eff" font-size="11" font-family="system-ui">压缩到 r 维</text>
  
  <!-- LoRA path: B -->
  <line x1="280" y1="222" x2="360" y2="222" stroke="#6e8eff" stroke-width="2" marker-end="url(#arrow-lora)"/>
  <rect x="360" y="195" width="100" height="55" rx="8" fill="#1e1e2a" stroke="#6e8eff" stroke-width="1.5"/>
  <text x="410" y="218" text-anchor="middle" fill="#ededf0" font-size="13" font-family="system-ui">B · z</text>
  <text x="410" y="238" text-anchor="middle" fill="#6e8eff" font-size="11" font-family="system-ui">扩展回 d 维</text>
  
  <!-- Bottleneck label -->
  <text x="320" y="275" text-anchor="middle" fill="#ff7b7b" font-size="12" font-family="system-ui">↑ r 维瓶颈（如 r=16）</text>
  
  <!-- Addition -->
  <line x1="390" y1="77" x2="510" y2="155" stroke="#3a3a4a" stroke-width="1.5" marker-end="url(#arrow-lora)"/>
  <line x1="460" y1="222" x2="510" y2="170" stroke="#6e8eff" stroke-width="2" marker-end="url(#arrow-lora)"/>
  <circle cx="530" cy="160" r="20" fill="#1e1e2a" stroke="#34d399" stroke-width="1.5"/>
  <text x="530" y="165" text-anchor="middle" fill="#34d399" font-size="18" font-family="system-ui">+</text>
  
  <!-- Output -->
  <line x1="550" y1="160" x2="600" y2="160" stroke="#34d399" stroke-width="1.5" marker-end="url(#arrow-lora)"/>
  <rect x="600" y="130" width="80" height="55" rx="8" fill="#1e1e2a" stroke="#34d399" stroke-width="1.5"/>
  <text x="640" y="155" text-anchor="middle" fill="#ededf0" font-size="13" font-family="system-ui">输出 h</text>
  <text x="640" y="172" text-anchor="middle" fill="#8888aa" font-size="11" font-family="system-ui">d 维</text>
  
  <!-- Labels -->
  <text x="320" y="30" text-anchor="middle" fill="#8888aa" font-size="12" font-family="system-ui">LoRA 前向传播：h = W₀x + (α/r) · BAx</text>
</svg>