<?xml version="1.0" encoding="UTF-8"?>
<svg viewBox="0 0 700 200" xmlns="http://www.w3.org/2000/svg" style="width:100%;max-width:700px;margin:24px auto;display:block;">
  <defs>
    <marker id="arr2" viewBox="0 0 10 10" refX="9" refY="5" markerWidth="5" markerHeight="5" orient="auto">
      <path d="M 0 0 L 10 5 L 0 10 z" fill="#6e8eff"/>
    </marker>
  </defs>
  <!-- MHA -->
  <text x="90" y="20" text-anchor="middle" fill="#ededf0" font-size="11" font-family="system-ui" font-weight="bold">MHA</text>
  <text x="90" y="35" text-anchor="middle" fill="#9494a0" font-size="9" font-family="system-ui">每头独立KV</text>
  <rect x="30" y="45" width="18" height="80" rx="3" fill="#22d3ee" opacity="0.6"/><text x="39" y="90" text-anchor="middle" fill="#fff" font-size="7">K₁</text>
  <rect x="50" y="45" width="18" height="80" rx="3" fill="#22d3ee" opacity="0.6"/><text x="59" y="90" text-anchor="middle" fill="#fff" font-size="7">K₂</text>
  <rect x="70" y="45" width="18" height="80" rx="3" fill="#22d3ee" opacity="0.6"/><text x="79" y="90" text-anchor="middle" fill="#fff" font-size="7">K₃</text>
  <rect x="90" y="45" width="18" height="80" rx="3" fill="#22d3ee" opacity="0.6"/><text x="99" y="90" text-anchor="middle" fill="#fff" font-size="7">K₄</text>
  <rect x="110" y="45" width="18" height="80" rx="3" fill="#fbbf24" opacity="0.6"/><text x="119" y="90" text-anchor="middle" fill="#fff" font-size="7">V₁</text>
  <rect x="130" y="45" width="18" height="80" rx="3" fill="#fbbf24" opacity="0.6"/><text x="139" y="90" text-anchor="middle" fill="#fff" font-size="7">V₂</text>
  <text x="90" y="145" text-anchor="middle" fill="#fb7185" font-size="9" font-family="system-ui">Cache: 8 向量/token</text>
  <text x="90" y="160" text-anchor="middle" fill="#6b6b78" font-size="9" font-family="system-ui">压缩: 1×</text>
  <!-- Arrow -->
  <line x1="160" y1="85" x2="190" y2="85" stroke="#6e8eff" stroke-width="1" marker-end="url(#arr2)"/>
  <!-- GQA -->
  <text x="270" y="20" text-anchor="middle" fill="#ededf0" font-size="11" font-family="system-ui" font-weight="bold">GQA</text>
  <text x="270" y="35" text-anchor="middle" fill="#9494a0" font-size="9" font-family="system-ui">分组共享KV</text>
  <rect x="220" y="45" width="40" height="80" rx="3" fill="#22d3ee" opacity="0.7"/><text x="240" y="90" text-anchor="middle" fill="#fff" font-size="8">K组1</text>
  <rect x="265" y="45" width="40" height="80" rx="3" fill="#22d3ee" opacity="0.7"/><text x="285" y="90" text-anchor="middle" fill="#fff" font-size="8">K组2</text>
  <text x="240" y="135" text-anchor="middle" fill="#9494a0" font-size="8" font-family="system-ui">Q₁Q₂→组1</text>
  <text x="285" y="135" text-anchor="middle" fill="#9494a0" font-size="8" font-family="system-ui">Q₃Q₄→组2</text>
  <text x="270" y="155" text-anchor="middle" fill="#34d399" font-size="9" font-family="system-ui">Cache: 4 向量/token</text>
  <text x="270" y="170" text-anchor="middle" fill="#6b6b78" font-size="9" font-family="system-ui">压缩: 2×</text>
  <!-- Arrow -->
  <line x1="320" y1="85" x2="360" y2="85" stroke="#6e8eff" stroke-width="1" marker-end="url(#arr2)"/>
  <!-- MQA -->
  <text x="430" y="20" text-anchor="middle" fill="#ededf0" font-size="11" font-family="system-ui" font-weight="bold">MQA</text>
  <text x="430" y="35" text-anchor="middle" fill="#9494a0" font-size="9" font-family="system-ui">全部共享1组KV</text>
  <rect x="405" y="45" width="50" height="80" rx="3" fill="#22d3ee" opacity="0.8"/><text x="430" y="85" text-anchor="middle" fill="#fff" font-size="9">K</text>
  <text x="430" y="145" text-anchor="middle" fill="#34d399" font-size="9" font-family="system-ui">Cache: 2 向量/token</text>
  <text x="430" y="160" text-anchor="middle" fill="#6b6b78" font-size="9" font-family="system-ui">压缩: 4×</text>
  <!-- Arrow -->
  <line x1="470" y1="85" x2="510" y2="85" stroke="#6e8eff" stroke-width="1" marker-end="url(#arr2)"/>
  <!-- MLA -->
  <text x="600" y="20" text-anchor="middle" fill="#ededf0" font-size="11" font-family="system-ui" font-weight="bold">MLA</text>
  <text x="600" y="35" text-anchor="middle" fill="#9494a0" font-size="9" font-family="system-ui">低秩压缩潜向量</text>
  <rect x="575" y="50" width="50" height="60" rx="3" fill="#a78bfa" opacity="0.7"/><text x="600" y="80" text-anchor="middle" fill="#fff" font-size="8">c_t</text>
  <text x="600" y="120" text-anchor="middle" fill="#9494a0" font-size="8" font-family="system-ui">d_c ≪ H×d_h</text>
  <text x="600" y="145" text-anchor="middle" fill="#34d399" font-size="9" font-family="system-ui">Cache: ~0.5 向量</text>
  <text x="600" y="160" text-anchor="middle" fill="#6b6b78" font-size="9" font-family="system-ui">压缩: 16-32×</text>
</svg>