<?xml version="1.0" encoding="UTF-8"?>
<svg viewBox="0 0 650 180" xmlns="http://www.w3.org/2000/svg" style="width:100%;max-width:650px;margin:24px auto;display:block;">
  <defs>
    <marker id="arr2" viewBox="0 0 10 10" refX="9" refY="5" markerWidth="5" markerHeight="5" orient="auto"><path d="M0 0L10 5L0 10z" fill="#6e8eff"/></marker>
    <marker id="arr2r" viewBox="0 0 10 10" refX="9" refY="5" markerWidth="5" markerHeight="5" orient="auto"><path d="M0 0L10 5L0 10z" fill="#f87171"/></marker>
  </defs>

  <!-- Expert box -->
  <rect x="200" y="30" width="180" height="70" rx="8" fill="#1e1e2a" stroke="#34d399" stroke-width="1.5"/>
  <text x="290" y="55" text-anchor="middle" fill="#34d399" font-size="12" font-family="system-ui">Expert 3</text>
  <text x="290" y="75" text-anchor="middle" fill="#6b6b78" font-size="10" font-family="system-ui">容量: 160 tokens</text>
  <text x="290" y="90" text-anchor="middle" fill="#fbbf24" font-size="9" font-family="system-ui">已满 ✓ (160/160)</text>

  <!-- Token coming in (accepted) -->
  <rect x="30" y="45" width="80" height="30" rx="5" fill="#1e1e2a" stroke="#6e8eff" stroke-width="1"/>
  <text x="70" y="64" text-anchor="middle" fill="#ededf0" font-size="9" font-family="system-ui">Token A</text>
  <line x1="110" y1="60" x2="195" y2="60" stroke="#6e8eff" stroke-width="1.2" marker-end="url(#arr2)"/>
  <text x="152" y="52" text-anchor="middle" fill="#34d399" font-size="8" font-family="system-ui">✓ 第 45 个</text>

  <!-- Token coming in (dropped) -->
  <rect x="30" y="120" width="80" height="30" rx="5" fill="#1e1e2a" stroke="#f87171" stroke-width="1"/>
  <text x="70" y="139" text-anchor="middle" fill="#ededf0" font-size="9" font-family="system-ui">Token B</text>
  <line x1="110" y1="135" x2="195" y2="105" stroke="#f87171" stroke-width="1.2" stroke-dasharray="4,3"/>
  <text x="160" y="130" text-anchor="middle" fill="#f87171" font-size="8" font-family="system-ui">✗ 容量满!</text>

  <!-- Residual path for dropped token -->
  <path d="M110 135 L440 135 L500 135" fill="none" stroke="#f87171" stroke-width="1.2" marker-end="url(#arr2r)"/>
  <text x="290" y="158" text-anchor="middle" fill="#f87171" font-size="9" font-family="system-ui">残差连接 → 跳过 MoE 层</text>

  <!-- Output -->
  <rect x="505" y="45" width="100" height="30" rx="5" fill="#1e1e2a" stroke="#6e8eff" stroke-width="1"/>
  <text x="555" y="64" text-anchor="middle" fill="#ededf0" font-size="9" font-family="system-ui">正常输出</text>

  <rect x="505" y="120" width="100" height="30" rx="5" fill="#1e1e2a" stroke="#f87171" stroke-width="1"/>
  <text x="555" y="139" text-anchor="middle" fill="#f87171" font-size="9" font-family="system-ui">降级输出</text>

  <!-- Output arrows -->
  <line x1="380" y1="65" x2="500" y2="60" stroke="#6e8eff" stroke-width="1.2" marker-end="url(#arr2)"/>
</svg>