<?xml version="1.0" encoding="UTF-8"?>
<svg viewBox="0 0 700 280" xmlns="http://www.w3.org/2000/svg" style="width:100%;max-width:700px;margin:24px auto;display:block;">
  <defs>
    <marker id="arr" viewBox="0 0 10 10" refX="9" refY="5" markerWidth="6" markerHeight="6" orient="auto">
      <path d="M 0 0 L 10 5 L 0 10 z" fill="#6e8eff"/>
    </marker>
  </defs>
  <!-- Prefill phase -->
  <rect x="20" y="20" width="300" height="110" rx="10" fill="#1a1a24" stroke="#3a3a4a" stroke-width="1"/>
  <text x="170" y="16" text-anchor="middle" fill="#6e8eff" font-size="12" font-family="system-ui" font-weight="bold">Prefill 阶段 (并行)</text>
  <rect x="40" y="45" width="260" height="35" rx="6" fill="#1e1e2a" stroke="#22d3ee" stroke-width="1.5"/>
  <text x="170" y="67" text-anchor="middle" fill="#ededf0" font-size="12" font-family="system-ui">输入 Prompt: [T₁, T₂, T₃, ... Tₙ]</text>
  <rect x="40" y="90" width="260" height="30" rx="6" fill="#1e1e2a" stroke="#34d399" stroke-width="1.5"/>
  <text x="170" y="109" text-anchor="middle" fill="#ededf0" font-size="11" font-family="system-ui">一次性计算所有 K, V → 存入 Cache</text>
  <!-- Arrow -->
  <line x1="320" y1="75" x2="370" y2="75" stroke="#6e8eff" stroke-width="1.5" marker-end="url(#arr)"/>
  <!-- KV Cache storage -->
  <rect x="380" y="30" width="140" height="100" rx="8" fill="#1e1e2a" stroke="#a78bfa" stroke-width="1.5"/>
  <text x="450" y="55" text-anchor="middle" fill="#a78bfa" font-size="11" font-family="system-ui" font-weight="bold">KV Cache</text>
  <text x="450" y="75" text-anchor="middle" fill="#9494a0" font-size="10" font-family="system-ui">K₁,V₁ | K₂,V₂ | ... | Kₙ,Vₙ</text>
  <text x="450" y="95" text-anchor="middle" fill="#9494a0" font-size="9" font-family="system-ui">× 每层 × 每 KV 头</text>
  <text x="450" y="115" text-anchor="middle" fill="#fb7185" font-size="9" font-family="system-ui">⚠️ 内存线性增长</text>
  <!-- Decode phase -->
  <rect x="20" y="155" width="660" height="110" rx="10" fill="#1a1a24" stroke="#3a3a4a" stroke-width="1"/>
  <text x="350" y="150" text-anchor="middle" fill="#6e8eff" font-size="12" font-family="system-ui" font-weight="bold">Decode 阶段 (逐 token 循环)</text>
  <rect x="40" y="180" width="100" height="35" rx="6" fill="#1e1e2a" stroke="#fbbf24" stroke-width="1.5"/>
  <text x="90" y="201" text-anchor="middle" fill="#ededf0" font-size="11" font-family="system-ui">新 token</text>
  <line x1="140" y1="197" x2="175" y2="197" stroke="#6e8eff" stroke-width="1.5" marker-end="url(#arr)"/>
  <rect x="180" y="175" width="140" height="45" rx="6" fill="#1e1e2a" stroke="#34d399" stroke-width="1.5"/>
  <text x="250" y="195" text-anchor="middle" fill="#ededf0" font-size="10" font-family="system-ui">算新 token 的 Q,K,V</text>
  <text x="250" y="210" text-anchor="middle" fill="#9494a0" font-size="9" font-family="system-ui">K,V 追加到 Cache</text>
  <line x1="320" y1="197" x2="355" y2="197" stroke="#6e8eff" stroke-width="1.5" marker-end="url(#arr)"/>
  <rect x="360" y="175" width="160" height="45" rx="6" fill="#1e1e2a" stroke="#22d3ee" stroke-width="1.5"/>
  <text x="440" y="195" text-anchor="middle" fill="#ededf0" font-size="10" font-family="system-ui">Q_new × 全部 cached K</text>
  <text x="440" y="210" text-anchor="middle" fill="#9494a0" font-size="9" font-family="system-ui">→ Attention → 输出</text>
  <line x1="520" y1="197" x2="555" y2="197" stroke="#6e8eff" stroke-width="1.5" marker-end="url(#arr)"/>
  <rect x="560" y="180" width="100" height="35" rx="6" fill="#1e1e2a" stroke="#fbbf24" stroke-width="1.5"/>
  <text x="610" y="201" text-anchor="middle" fill="#ededf0" font-size="11" font-family="system-ui">输出 token</text>
  <!-- Loop arrow -->
  <path d="M 610 215 L 610 250 L 90 250 L 90 215" fill="none" stroke="#6b6b78" stroke-width="1" stroke-dasharray="4,3"/>
  <text x="350" y="245" text-anchor="middle" fill="#6b6b78" font-size="9" font-family="system-ui">循环直到生成结束</text>
</svg>