<svg viewBox="0 0 800 520" xmlns="http://www.w3.org/2000/svg" style="width:100%;max-width:800px;margin:24px auto;display:block;font-family:system-ui,-apple-system,sans-serif;">
  <defs>
    <marker id="arr" viewBox="0 0 10 10" refX="9" refY="5" markerWidth="5" markerHeight="5" orient="auto">
      <path d="M0 0L10 5L0 10z" fill="#6e8eff"/>
    </marker>
    <linearGradient id="bg" x1="0%" y1="0%" x2="0%" y2="100%">
      <stop offset="0%" style="stop-color:#0f172a"/>
      <stop offset="100%" style="stop-color:#020617"/>
    </linearGradient>
  </defs>
  
  <!-- Background -->
  <rect width="800" height="520" fill="url(#bg)" rx="12"/>
  
  <!-- Title -->
  <text x="400" y="30" text-anchor="middle" fill="#e2e8f0" font-size="14" font-weight="bold">AWS 六层纵深安全防御架构</text>
  
  <!-- Layer 1: Identity -->
  <rect x="30" y="50" width="740" height="60" rx="8" fill="rgba(136,19,55,0.2)" stroke="#fb7185" stroke-width="1.5" stroke-dasharray="4,2"/>
  <text x="50" y="72" fill="#fb7185" font-size="11" font-weight="bold">① 身份与访问层</text>
  <rect x="50" y="78" width="100" height="24" rx="4" fill="rgba(136,19,55,0.4)" stroke="#fb7185" stroke-width="1"/>
  <text x="100" y="94" text-anchor="middle" fill="#fda4af" font-size="9">Identity Center</text>
  <rect x="160" y="78" width="60" height="24" rx="4" fill="rgba(136,19,55,0.4)" stroke="#fb7185" stroke-width="1"/>
  <text x="190" y="94" text-anchor="middle" fill="#fda4af" font-size="9">MFA</text>
  <rect x="230" y="78" width="60" height="24" rx="4" fill="rgba(136,19,55,0.4)" stroke="#fb7185" stroke-width="1"/>
  <text x="260" y="94" text-anchor="middle" fill="#fda4af" font-size="9">SCP</text>
  <rect x="300" y="78" width="100" height="24" rx="4" fill="rgba(136,19,55,0.4)" stroke="#fb7185" stroke-width="1"/>
  <text x="350" y="94" text-anchor="middle" fill="#fda4af" font-size="9">Least Privilege</text>
  <rect x="410" y="78" width="110" height="24" rx="4" fill="rgba(136,19,55,0.4)" stroke="#fb7185" stroke-width="1"/>
  <text x="465" y="94" text-anchor="middle" fill="#fda4af" font-size="9">Access Analyzer</text>
  <rect x="530" y="78" width="110" height="24" rx="4" fill="rgba(136,19,55,0.4)" stroke="#fb7185" stroke-width="1"/>
  <text x="585" y="94" text-anchor="middle" fill="#fda4af" font-size="9">Permission Boundary</text>
  
  <!-- Layer 2: Network -->
  <rect x="30" y="120" width="740" height="60" rx="8" fill="rgba(8,51,68,0.2)" stroke="#22d3ee" stroke-width="1.5" stroke-dasharray="4,2"/>
  <text x="50" y="142" fill="#22d3ee" font-size="11" font-weight="bold">② 网络层</text>
  <rect x="50" y="148" width="80" height="24" rx="4" fill="rgba(8,51,68,0.4)" stroke="#22d3ee" stroke-width="1"/>
  <text x="90" y="164" text-anchor="middle" fill="#67e8f9" font-size="9">VPC 隔离</text>
  <rect x="140" y="148" width="60" height="24" rx="4" fill="rgba(8,51,68,0.4)" stroke="#22d3ee" stroke-width="1"/>
  <text x="170" y="164" text-anchor="middle" fill="#67e8f9" font-size="9">SG/NACL</text>
  <rect x="210" y="148" width="60" height="24" rx="4" fill="rgba(8,51,68,0.4)" stroke="#22d3ee" stroke-width="1"/>
  <text x="240" y="164" text-anchor="middle" fill="#67e8f9" font-size="9">WAF</text>
  <rect x="280" y="148" width="60" height="24" rx="4" fill="rgba(8,51,68,0.4)" stroke="#22d3ee" stroke-width="1"/>
  <text x="310" y="164" text-anchor="middle" fill="#67e8f9" font-size="9">Shield</text>
  <rect x="350" y="148" width="80" height="24" rx="4" fill="rgba(8,51,68,0.4)" stroke="#22d3ee" stroke-width="1"/>
  <text x="390" y="164" text-anchor="middle" fill="#67e8f9" font-size="9">PrivateLink</text>
  <rect x="440" y="148" width="100" height="24" rx="4" fill="rgba(8,51,68,0.4)" stroke="#22d3ee" stroke-width="1"/>
  <text x="490" y="164" text-anchor="middle" fill="#67e8f9" font-size="9">Network Firewall</text>
  <rect x="550" y="148" width="80" height="24" rx="4" fill="rgba(8,51,68,0.4)" stroke="#22d3ee" stroke-width="1"/>
  <text x="590" y="164" text-anchor="middle" fill="#67e8f9" font-size="9">Flow Logs</text>
  
  <!-- Layer 3: Compute -->
  <rect x="30" y="190" width="740" height="60" rx="8" fill="rgba(6,78,59,0.2)" stroke="#34d399" stroke-width="1.5" stroke-dasharray="4,2"/>
  <text x="50" y="212" fill="#34d399" font-size="11" font-weight="bold">③ 计算层</text>
  <rect x="50" y="218" width="80" height="24" rx="4" fill="rgba(6,78,59,0.4)" stroke="#34d399" stroke-width="1"/>
  <text x="90" y="234" text-anchor="middle" fill="#6ee7b7" font-size="9">IMDSv2</text>
  <rect x="140" y="218" width="100" height="24" rx="4" fill="rgba(6,78,59,0.4)" stroke="#34d399" stroke-width="1"/>
  <text x="190" y="234" text-anchor="middle" fill="#6ee7b7" font-size="9">SSM Session Mgr</text>
  <rect x="250" y="218" width="100" height="24" rx="4" fill="rgba(6,78,59,0.4)" stroke="#34d399" stroke-width="1"/>
  <text x="300" y="234" text-anchor="middle" fill="#6ee7b7" font-size="9">Patch Manager</text>
  <rect x="360" y="218" width="90" height="24" rx="4" fill="rgba(6,78,59,0.4)" stroke="#34d399" stroke-width="1"/>
  <text x="405" y="234" text-anchor="middle" fill="#6ee7b7" font-size="9">Instance Profile</text>
  <rect x="460" y="218" width="90" height="24" rx="4" fill="rgba(6,78,59,0.4)" stroke="#34d399" stroke-width="1"/>
  <text x="505" y="234" text-anchor="middle" fill="#6ee7b7" font-size="9">No Public IP</text>
  
  <!-- Layer 4: Data -->
  <rect x="30" y="260" width="740" height="60" rx="8" fill="rgba(76,29,149,0.2)" stroke="#a78bfa" stroke-width="1.5" stroke-dasharray="4,2"/>
  <text x="50" y="282" fill="#a78bfa" font-size="11" font-weight="bold">④ 数据层</text>
  <rect x="50" y="288" width="80" height="24" rx="4" fill="rgba(76,29,149,0.4)" stroke="#a78bfa" stroke-width="1"/>
  <text x="90" y="304" text-anchor="middle" fill="#c4b5fd" font-size="9">KMS 加密</text>
  <rect x="140" y="288" width="100" height="24" rx="4" fill="rgba(76,29,149,0.4)" stroke="#a78bfa" stroke-width="1"/>
  <text x="190" y="304" text-anchor="middle" fill="#c4b5fd" font-size="9">S3 Block Public</text>
  <rect x="250" y="288" width="100" height="24" rx="4" fill="rgba(76,29,149,0.4)" stroke="#a78bfa" stroke-width="1"/>
  <text x="300" y="304" text-anchor="middle" fill="#c4b5fd" font-size="9">EBS 默认加密</text>
  <rect x="360" y="288" width="80" height="24" rx="4" fill="rgba(76,29,149,0.4)" stroke="#a78bfa" stroke-width="1"/>
  <text x="400" y="304" text-anchor="middle" fill="#c4b5fd" font-size="9">TLS 强制</text>
  <rect x="450" y="288" width="60" height="24" rx="4" fill="rgba(76,29,149,0.4)" stroke="#a78bfa" stroke-width="1"/>
  <text x="480" y="304" text-anchor="middle" fill="#c4b5fd" font-size="9">Macie</text>
  
  <!-- Layer 5: Detection -->
  <rect x="30" y="330" width="740" height="60" rx="8" fill="rgba(120,53,15,0.2)" stroke="#fbbf24" stroke-width="1.5" stroke-dasharray="4,2"/>
  <text x="50" y="352" fill="#fbbf24" font-size="11" font-weight="bold">⑤ 检测与响应层</text>
  <rect x="50" y="358" width="80" height="24" rx="4" fill="rgba(120,53,15,0.4)" stroke="#fbbf24" stroke-width="1"/>
  <text x="90" y="374" text-anchor="middle" fill="#fde68a" font-size="9">GuardDuty</text>
  <rect x="140" y="358" width="90" height="24" rx="4" fill="rgba(120,53,15,0.4)" stroke="#fbbf24" stroke-width="1"/>
  <text x="185" y="374" text-anchor="middle" fill="#fde68a" font-size="9">Security Hub</text>
  <rect x="240" y="358" width="110" height="24" rx="4" fill="rgba(120,53,15,0.4)" stroke="#fbbf24" stroke-width="1"/>
  <text x="295" y="374" text-anchor="middle" fill="#fde68a" font-size="9">CloudWatch Logs</text>
  <rect x="360" y="358" width="90" height="24" rx="4" fill="rgba(120,53,15,0.4)" stroke="#fbbf24" stroke-width="1"/>
  <text x="405" y="374" text-anchor="middle" fill="#fde68a" font-size="9">EventBridge</text>
  <rect x="460" y="358" width="100" height="24" rx="4" fill="rgba(120,53,15,0.4)" stroke="#fbbf24" stroke-width="1"/>
  <text x="510" y="374" text-anchor="middle" fill="#fde68a" font-size="9">Lambda 自动修复</text>
  <rect x="570" y="358" width="80" height="24" rx="4" fill="rgba(120,53,15,0.4)" stroke="#fbbf24" stroke-width="1"/>
  <text x="610" y="374" text-anchor="middle" fill="#fde68a" font-size="9">Detective</text>
  
  <!-- Layer 6: Audit -->
  <rect x="30" y="400" width="740" height="60" rx="8" fill="rgba(30,41,59,0.3)" stroke="#94a3b8" stroke-width="1.5" stroke-dasharray="4,2"/>
  <text x="50" y="422" fill="#94a3b8" font-size="11" font-weight="bold">⑥ 审计与合规层</text>
  <rect x="50" y="428" width="80" height="24" rx="4" fill="rgba(30,41,59,0.5)" stroke="#94a3b8" stroke-width="1"/>
  <text x="90" y="444" text-anchor="middle" fill="#cbd5e1" font-size="9">CloudTrail</text>
  <rect x="140" y="428" width="90" height="24" rx="4" fill="rgba(30,41,59,0.5)" stroke="#94a3b8" stroke-width="1"/>
  <text x="185" y="444" text-anchor="middle" fill="#cbd5e1" font-size="9">Config Rules</text>
  <rect x="240" y="428" width="110" height="24" rx="4" fill="rgba(30,41,59,0.5)" stroke="#94a3b8" stroke-width="1"/>
  <text x="295" y="444" text-anchor="middle" fill="#cbd5e1" font-size="9">Access Analyzer</text>
  <rect x="360" y="428" width="90" height="24" rx="4" fill="rgba(30,41,59,0.5)" stroke="#94a3b8" stroke-width="1"/>
  <text x="405" y="444" text-anchor="middle" fill="#cbd5e1" font-size="9">Auto Remediation</text>
  
  <!-- DevOps Agent box (right side) -->
  <rect x="670" y="120" width="90" height="340" rx="8" fill="rgba(120,53,15,0.15)" stroke="#fb923c" stroke-width="2"/>
  <text x="715" y="160" text-anchor="middle" fill="#fb923c" font-size="10" font-weight="bold">AWS</text>
  <text x="715" y="175" text-anchor="middle" fill="#fb923c" font-size="10" font-weight="bold">DevOps</text>
  <text x="715" y="190" text-anchor="middle" fill="#fb923c" font-size="10" font-weight="bold">Agent</text>
  <text x="715" y="220" text-anchor="middle" fill="#fdba74" font-size="8">自动调查</text>
  <text x="715" y="235" text-anchor="middle" fill="#fdba74" font-size="8">根因分析</text>
  <text x="715" y="250" text-anchor="middle" fill="#fdba74" font-size="8">修复建议</text>
  <text x="715" y="265" text-anchor="middle" fill="#fdba74" font-size="8">预防优化</text>
  
  <!-- Arrows from layers to DevOps Agent -->
  <line x1="650" y1="360" x2="668" y2="300" stroke="#fb923c" stroke-width="1" stroke-dasharray="3,2" marker-end="url(#arr)"/>
  <line x1="650" y1="430" x2="668" y2="380" stroke="#fb923c" stroke-width="1" stroke-dasharray="3,2" marker-end="url(#arr)"/>
  
  <!-- Bottom label -->
  <text x="400" y="500" text-anchor="middle" fill="#64748b" font-size="9">每一层独立防护，任何一层失效时其他层仍提供保护 — Defense in Depth</text>
</svg>