<svg xmlns="http://www.w3.org/2000/svg" width="1200" height="800" viewBox="0 0 1200 800" font-family="Inter, -apple-system, sans-serif">
  <defs>
    <pattern id="grid" width="40" height="40" patternUnits="userSpaceOnUse">
      <path d="M 40 0 L 0 0 0 40" fill="none" stroke="#1e293b" stroke-width="0.5"/>
    </pattern>
    <marker id="arrow" markerWidth="8" markerHeight="6" refX="8" refY="3" orient="auto">
      <path d="M0,0 L8,3 L0,6" fill="#94a3b8"/>
    </marker>
  </defs>
  <rect width="1200" height="800" fill="#020617"/>
  <rect width="1200" height="800" fill="url(#grid)"/>
  
  <text x="600" y="35" text-anchor="middle" fill="#f8fafc" font-size="18" font-weight="700">EKS Deep Observability - Four Layer Metrics + Dual Mode Response</text>
  
  <!-- Layer 4: Business SLO -->
  <rect x="40" y="55" width="1120" height="110" rx="8" fill="rgba(120, 53, 15, 0.15)" stroke="#fbbf24" stroke-width="1" stroke-dasharray="6,3"/>
  <text x="60" y="75" fill="#fbbf24" font-size="11" font-weight="600">Layer 4: Business &amp; SLO</text>
  <rect x="80" y="90" width="150" height="55" rx="6" fill="#0f172a"/><rect x="80" y="90" width="150" height="55" rx="6" fill="rgba(120, 53, 15, 0.3)" stroke="#fbbf24" stroke-width="1.5"/>
  <text x="155" y="115" text-anchor="middle" fill="#fbbf24" font-size="10" font-weight="600">SLO Dashboard</text>
  <text x="155" y="132" text-anchor="middle" fill="#94a3b8" font-size="8">Error Budget / Burn Rate</text>
  <rect x="270" y="90" width="150" height="55" rx="6" fill="#0f172a"/><rect x="270" y="90" width="150" height="55" rx="6" fill="rgba(120, 53, 15, 0.3)" stroke="#fbbf24" stroke-width="1.5"/>
  <text x="345" y="115" text-anchor="middle" fill="#fbbf24" font-size="10" font-weight="600">Business KPIs</text>
  <text x="345" y="132" text-anchor="middle" fill="#94a3b8" font-size="8">Revenue / Conversion / Orders</text>
  <rect x="460" y="90" width="150" height="55" rx="6" fill="#0f172a"/><rect x="460" y="90" width="150" height="55" rx="6" fill="rgba(120, 53, 15, 0.3)" stroke="#fbbf24" stroke-width="1.5"/>
  <text x="535" y="115" text-anchor="middle" fill="#fbbf24" font-size="10" font-weight="600">MTTR / MTTD</text>
  <text x="535" y="132" text-anchor="middle" fill="#94a3b8" font-size="8">Operational Efficiency</text>

  <!-- Layer 3: Application -->
  <rect x="40" y="180" width="1120" height="120" rx="8" fill="rgba(6, 78, 59, 0.15)" stroke="#34d399" stroke-width="1" stroke-dasharray="6,3"/>
  <text x="60" y="200" fill="#34d399" font-size="11" font-weight="600">Layer 3: Application (RED + Traces + Custom Metrics)</text>
  <rect x="80" y="215" width="130" height="55" rx="6" fill="#0f172a"/><rect x="80" y="215" width="130" height="55" rx="6" fill="rgba(6, 78, 59, 0.3)" stroke="#34d399" stroke-width="1.5"/>
  <text x="145" y="238" text-anchor="middle" fill="#34d399" font-size="9" font-weight="600">Application Signals</text>
  <text x="145" y="255" text-anchor="middle" fill="#94a3b8" font-size="8">Auto-instrument</text>
  <rect x="230" y="215" width="130" height="55" rx="6" fill="#0f172a"/><rect x="230" y="215" width="130" height="55" rx="6" fill="rgba(6, 78, 59, 0.3)" stroke="#34d399" stroke-width="1.5"/>
  <text x="295" y="238" text-anchor="middle" fill="#34d399" font-size="9" font-weight="600">OTel SDK</text>
  <text x="295" y="255" text-anchor="middle" fill="#94a3b8" font-size="8">Custom Metrics + Traces</text>
  <rect x="380" y="215" width="130" height="55" rx="6" fill="#0f172a"/><rect x="380" y="215" width="130" height="55" rx="6" fill="rgba(6, 78, 59, 0.3)" stroke="#34d399" stroke-width="1.5"/>
  <text x="445" y="238" text-anchor="middle" fill="#34d399" font-size="9" font-weight="600">X-Ray Traces</text>
  <text x="445" y="255" text-anchor="middle" fill="#94a3b8" font-size="8">Distributed Tracing</text>
  <rect x="530" y="215" width="130" height="55" rx="6" fill="#0f172a"/><rect x="530" y="215" width="130" height="55" rx="6" fill="rgba(6, 78, 59, 0.3)" stroke="#34d399" stroke-width="1.5"/>
  <text x="595" y="238" text-anchor="middle" fill="#34d399" font-size="9" font-weight="600">Service Map</text>
  <text x="595" y="255" text-anchor="middle" fill="#94a3b8" font-size="8">Topology + Dependencies</text>

  <!-- Layer 2: Data Plane -->
  <rect x="40" y="315" width="1120" height="120" rx="8" fill="rgba(8, 51, 68, 0.15)" stroke="#22d3ee" stroke-width="1" stroke-dasharray="6,3"/>
  <text x="60" y="335" fill="#22d3ee" font-size="11" font-weight="600">Layer 2: Data Plane (Node + Pod + K8s Objects)</text>
  <rect x="80" y="350" width="120" height="55" rx="6" fill="#0f172a"/><rect x="80" y="350" width="120" height="55" rx="6" fill="rgba(8, 51, 68, 0.3)" stroke="#22d3ee" stroke-width="1.5"/>
  <text x="140" y="373" text-anchor="middle" fill="#22d3ee" font-size="9" font-weight="600">node-exporter</text>
  <text x="140" y="390" text-anchor="middle" fill="#94a3b8" font-size="8">CPU/Mem/Disk/Net</text>
  <rect x="220" y="350" width="120" height="55" rx="6" fill="#0f172a"/><rect x="220" y="350" width="120" height="55" rx="6" fill="rgba(8, 51, 68, 0.3)" stroke="#22d3ee" stroke-width="1.5"/>
  <text x="280" y="373" text-anchor="middle" fill="#22d3ee" font-size="9" font-weight="600">kube-state-metrics</text>
  <text x="280" y="390" text-anchor="middle" fill="#94a3b8" font-size="8">Pod/Deploy/HPA</text>
  <rect x="360" y="350" width="120" height="55" rx="6" fill="#0f172a"/><rect x="360" y="350" width="120" height="55" rx="6" fill="rgba(8, 51, 68, 0.3)" stroke="#22d3ee" stroke-width="1.5"/>
  <text x="420" y="373" text-anchor="middle" fill="#22d3ee" font-size="9" font-weight="600">cAdvisor</text>
  <text x="420" y="390" text-anchor="middle" fill="#94a3b8" font-size="8">Container Resources</text>
  <rect x="500" y="350" width="120" height="55" rx="6" fill="#0f172a"/><rect x="500" y="350" width="120" height="55" rx="6" fill="rgba(8, 51, 68, 0.3)" stroke="#22d3ee" stroke-width="1.5"/>
  <text x="560" y="373" text-anchor="middle" fill="#22d3ee" font-size="9" font-weight="600">kubelet</text>
  <text x="560" y="390" text-anchor="middle" fill="#94a3b8" font-size="8">Pod Start / Runtime</text>

  <!-- Layer 1: Control Plane -->
  <rect x="40" y="450" width="1120" height="110" rx="8" fill="rgba(76, 29, 149, 0.15)" stroke="#a78bfa" stroke-width="1" stroke-dasharray="6,3"/>
  <text x="60" y="470" fill="#a78bfa" font-size="11" font-weight="600">Layer 1: EKS Control Plane (AWS Managed)</text>
  <rect x="80" y="485" width="120" height="55" rx="6" fill="#0f172a"/><rect x="80" y="485" width="120" height="55" rx="6" fill="rgba(76, 29, 149, 0.3)" stroke="#a78bfa" stroke-width="1.5"/>
  <text x="140" y="508" text-anchor="middle" fill="#a78bfa" font-size="9" font-weight="600">kube-apiserver</text>
  <text x="140" y="525" text-anchor="middle" fill="#94a3b8" font-size="8">Request Rate/Latency</text>
  <rect x="220" y="485" width="120" height="55" rx="6" fill="#0f172a"/><rect x="220" y="485" width="120" height="55" rx="6" fill="rgba(76, 29, 149, 0.3)" stroke="#a78bfa" stroke-width="1.5"/>
  <text x="280" y="508" text-anchor="middle" fill="#a78bfa" font-size="9" font-weight="600">scheduler</text>
  <text x="280" y="525" text-anchor="middle" fill="#94a3b8" font-size="8">Schedule Latency</text>
  <rect x="360" y="485" width="120" height="55" rx="6" fill="#0f172a"/><rect x="360" y="485" width="120" height="55" rx="6" fill="rgba(76, 29, 149, 0.3)" stroke="#a78bfa" stroke-width="1.5"/>
  <text x="420" y="508" text-anchor="middle" fill="#a78bfa" font-size="9" font-weight="600">controller-manager</text>
  <text x="420" y="525" text-anchor="middle" fill="#94a3b8" font-size="8">Workqueue Depth</text>
  <rect x="500" y="485" width="120" height="55" rx="6" fill="#0f172a"/><rect x="500" y="485" width="120" height="55" rx="6" fill="rgba(76, 29, 149, 0.3)" stroke="#a78bfa" stroke-width="1.5"/>
  <text x="560" y="508" text-anchor="middle" fill="#a78bfa" font-size="9" font-weight="600">etcd (indirect)</text>
  <text x="560" y="525" text-anchor="middle" fill="#94a3b8" font-size="8">Object Count</text>

  <!-- Right Panel -->
  <rect x="700" y="180" width="440" height="380" rx="10" fill="rgba(30, 41, 59, 0.3)" stroke="#475569" stroke-width="1"/>
  <text x="920" y="200" text-anchor="middle" fill="#f8fafc" font-size="12" font-weight="600">Collect - Store - Visualize - Respond</text>
  
  <rect x="720" y="215" width="160" height="50" rx="6" fill="#0f172a"/><rect x="720" y="215" width="160" height="50" rx="6" fill="rgba(6, 78, 59, 0.3)" stroke="#34d399" stroke-width="1.5"/>
  <text x="800" y="237" text-anchor="middle" fill="#34d399" font-size="10" font-weight="600">ADOT Collector</text>
  <text x="800" y="253" text-anchor="middle" fill="#94a3b8" font-size="8">OpenTelemetry Pipeline</text>
  
  <rect x="720" y="285" width="100" height="45" rx="6" fill="#0f172a"/><rect x="720" y="285" width="100" height="45" rx="6" fill="rgba(76, 29, 149, 0.3)" stroke="#a78bfa" stroke-width="1.5"/>
  <text x="770" y="305" text-anchor="middle" fill="#a78bfa" font-size="9" font-weight="600">AMP</text>
  <text x="770" y="320" text-anchor="middle" fill="#94a3b8" font-size="7">Metrics</text>
  <rect x="835" y="285" width="100" height="45" rx="6" fill="#0f172a"/><rect x="835" y="285" width="100" height="45" rx="6" fill="rgba(76, 29, 149, 0.3)" stroke="#a78bfa" stroke-width="1.5"/>
  <text x="885" y="305" text-anchor="middle" fill="#a78bfa" font-size="9" font-weight="600">CloudWatch</text>
  <text x="885" y="320" text-anchor="middle" fill="#94a3b8" font-size="7">Logs</text>
  <rect x="950" y="285" width="100" height="45" rx="6" fill="#0f172a"/><rect x="950" y="285" width="100" height="45" rx="6" fill="rgba(76, 29, 149, 0.3)" stroke="#a78bfa" stroke-width="1.5"/>
  <text x="1000" y="305" text-anchor="middle" fill="#a78bfa" font-size="9" font-weight="600">X-Ray</text>
  <text x="1000" y="320" text-anchor="middle" fill="#94a3b8" font-size="7">Traces</text>
  
  <rect x="720" y="350" width="330" height="50" rx="6" fill="#0f172a"/><rect x="720" y="350" width="330" height="50" rx="6" fill="rgba(120, 53, 15, 0.3)" stroke="#fbbf24" stroke-width="1.5"/>
  <text x="885" y="372" text-anchor="middle" fill="#fbbf24" font-size="11" font-weight="600">Grafana</text>
  <text x="885" y="389" text-anchor="middle" fill="#94a3b8" font-size="8">Dashboard + Alerting + AI Assistant</text>
  
  <rect x="720" y="420" width="155" height="55" rx="6" fill="#0f172a"/><rect x="720" y="420" width="155" height="55" rx="6" fill="rgba(136, 19, 55, 0.3)" stroke="#fb7185" stroke-width="1.5"/>
  <text x="797" y="443" text-anchor="middle" fill="#fb7185" font-size="9" font-weight="600">Reactive Mode</text>
  <text x="797" y="460" text-anchor="middle" fill="#94a3b8" font-size="8">Alert -&gt; Contact Point</text>
  <text x="797" y="472" text-anchor="middle" fill="#94a3b8" font-size="7">-&gt; Webhook -&gt; Agent</text>
  
  <rect x="895" y="420" width="155" height="55" rx="6" fill="#0f172a"/><rect x="895" y="420" width="155" height="55" rx="6" fill="rgba(6, 78, 59, 0.3)" stroke="#34d399" stroke-width="1.5"/>
  <text x="972" y="443" text-anchor="middle" fill="#34d399" font-size="9" font-weight="600">Proactive Mode</text>
  <text x="972" y="460" text-anchor="middle" fill="#94a3b8" font-size="8">Cron + ML Anomaly</text>
  <text x="972" y="472" text-anchor="middle" fill="#94a3b8" font-size="7">-&gt; DevOps Agent</text>
  
  <rect x="760" y="495" width="270" height="50" rx="6" fill="#0f172a"/><rect x="760" y="495" width="270" height="50" rx="6" fill="rgba(251, 146, 60, 0.3)" stroke="#fb923c" stroke-width="2"/>
  <text x="895" y="517" text-anchor="middle" fill="#fb923c" font-size="11" font-weight="700">AWS DevOps Agent</text>
  <text x="895" y="533" text-anchor="middle" fill="#94a3b8" font-size="8">AI Investigation -&gt; Root Cause -&gt; Fix</text>

  <!-- Arrows -->
  <line x1="660" y1="242" x2="718" y2="240" stroke="#34d399" stroke-width="1" marker-end="url(#arrow)"/>
  <line x1="620" y1="377" x2="718" y2="300" stroke="#22d3ee" stroke-width="1" marker-end="url(#arrow)"/>
  <line x1="620" y1="512" x2="718" y2="310" stroke="#a78bfa" stroke-width="1" marker-end="url(#arrow)"/>
  
  <!-- Maturity -->
  <rect x="40" y="590" width="1120" height="130" rx="8" fill="rgba(30, 41, 59, 0.2)" stroke="#334155" stroke-width="1"/>
  <text x="600" y="615" text-anchor="middle" fill="#f8fafc" font-size="12" font-weight="600">Maturity Model: 5 Levels (2-12 weeks)</text>
  <rect x="60" y="635" width="190" height="50" rx="6" fill="rgba(136, 19, 55, 0.2)" stroke="#fb7185" stroke-width="1"/>
  <text x="155" y="657" text-anchor="middle" fill="#fb7185" font-size="9" font-weight="600">L1: Infra (1-2w)</text>
  <text x="155" y="673" text-anchor="middle" fill="#94a3b8" font-size="7">Container Insights</text>
  <rect x="270" y="635" width="190" height="50" rx="6" fill="rgba(120, 53, 15, 0.2)" stroke="#fbbf24" stroke-width="1"/>
  <text x="365" y="657" text-anchor="middle" fill="#fbbf24" font-size="9" font-weight="600">L2: App (2-4w)</text>
  <text x="365" y="673" text-anchor="middle" fill="#94a3b8" font-size="7">App Signals + ADOT</text>
  <rect x="480" y="635" width="190" height="50" rx="6" fill="rgba(6, 78, 59, 0.2)" stroke="#34d399" stroke-width="1"/>
  <text x="575" y="657" text-anchor="middle" fill="#34d399" font-size="9" font-weight="600">L3: SLO (4-6w)</text>
  <text x="575" y="673" text-anchor="middle" fill="#94a3b8" font-size="7">Error Budget + Burn Rate</text>
  <rect x="690" y="635" width="190" height="50" rx="6" fill="rgba(8, 51, 68, 0.2)" stroke="#22d3ee" stroke-width="1"/>
  <text x="785" y="657" text-anchor="middle" fill="#22d3ee" font-size="9" font-weight="600">L4: AI (6-8w)</text>
  <text x="785" y="673" text-anchor="middle" fill="#94a3b8" font-size="7">DevOps Agent + Anomaly</text>
  <rect x="900" y="635" width="190" height="50" rx="6" fill="rgba(76, 29, 149, 0.2)" stroke="#a78bfa" stroke-width="1"/>
  <text x="995" y="657" text-anchor="middle" fill="#a78bfa" font-size="9" font-weight="600">L5: Self-Heal (8-12w)</text>
  <text x="995" y="673" text-anchor="middle" fill="#94a3b8" font-size="7">Auto-remediation</text>
  
  <!-- Legend -->
  <rect x="60" y="710" width="12" height="12" fill="rgba(76, 29, 149, 0.3)" stroke="#a78bfa" stroke-width="1"/>
  <text x="78" y="720" fill="#94a3b8" font-size="8">Control Plane</text>
  <rect x="170" y="710" width="12" height="12" fill="rgba(8, 51, 68, 0.3)" stroke="#22d3ee" stroke-width="1"/>
  <text x="188" y="720" fill="#94a3b8" font-size="8">Data Plane</text>
  <rect x="265" y="710" width="12" height="12" fill="rgba(6, 78, 59, 0.3)" stroke="#34d399" stroke-width="1"/>
  <text x="283" y="720" fill="#94a3b8" font-size="8">Application</text>
  <rect x="355" y="710" width="12" height="12" fill="rgba(120, 53, 15, 0.3)" stroke="#fbbf24" stroke-width="1"/>
  <text x="373" y="720" fill="#94a3b8" font-size="8">Business/SLO</text>
  <rect x="455" y="710" width="12" height="12" fill="rgba(251, 146, 60, 0.3)" stroke="#fb923c" stroke-width="1"/>
  <text x="473" y="720" fill="#94a3b8" font-size="8">DevOps Agent</text>
</svg>